<svg xmlns="http://www.w3.org/2000/svg" width="800" height="1120" viewBox="0 0 800 1120" role="img" aria-label="Software engineer template preview">
  <!-- Background -->
  <rect width="800" height="1120" fill="#ffffff" />

  <!-- Header area -->
  <!-- Avatar placeholder (left) -->
  <rect x="40" y="36" width="110" height="140" rx="6" fill="#d0dbed" />
  <rect x="44" y="40" width="102" height="132" rx="4" fill="#bccce8" />

  <!-- Name placeholder (right of avatar) -->
  <rect x="172" y="44" width="200" height="30" rx="6" fill="#1a1a1a" opacity="0.75" />

  <!-- Contact line 1 -->
  <circle cx="180" cy="95" r="5" fill="#2a5caa" />
  <rect x="190" y="89" width="80" height="12" rx="4" fill="#aab8d0" />
  <circle cx="284" cy="95" r="5" fill="#2a5caa" />
  <rect x="294" y="89" width="110" height="12" rx="4" fill="#aab8d0" />
  <circle cx="420" cy="95" r="5" fill="#2a5caa" />
  <rect x="430" y="89" width="50" height="12" rx="4" fill="#aab8d0" />
  <circle cx="496" cy="95" r="5" fill="#2a5caa" />
  <rect x="506" y="89" width="30" height="12" rx="4" fill="#aab8d0" />
  <circle cx="552" cy="95" r="5" fill="#2a5caa" />
  <rect x="562" y="89" width="50" height="12" rx="4" fill="#aab8d0" />

  <!-- Contact line 2 -->
  <circle cx="180" cy="120" r="5" fill="#2a5caa" />
  <rect x="190" y="114" width="80" height="12" rx="4" fill="#aab8d0" />
  <circle cx="284" cy="120" r="5" fill="#2a5caa" />
  <rect x="294" y="114" width="100" height="12" rx="4" fill="#aab8d0" />
  <circle cx="410" cy="120" r="5" fill="#2a5caa" />
  <rect x="420" y="114" width="50" height="12" rx="4" fill="#aab8d0" />
  <circle cx="486" cy="120" r="5" fill="#2a5caa" />
  <rect x="496" y="114" width="50" height="12" rx="4" fill="#aab8d0" />
  <circle cx="562" cy="120" r="5" fill="#2a5caa" />
  <rect x="572" y="114" width="50" height="12" rx="4" fill="#aab8d0" />

  <!-- Contact line 3 (links) -->
  <circle cx="180" cy="145" r="5" fill="#2a5caa" />
  <rect x="190" y="139" width="120" height="12" rx="4" fill="#7ba3d4" />
  <circle cx="326" cy="145" r="5" fill="#2a5caa" />
  <rect x="336" y="139" width="140" height="12" rx="4" fill="#7ba3d4" />

  <!-- Header bottom border -->
  <rect x="40" y="192" width="720" height="2" fill="#2a5caa" />

  <!-- Section: 专业技能 -->
  <rect x="40" y="210" width="720" height="28" rx="3" fill="#f0f2f5" />
  <rect x="40" y="210" width="4" height="28" fill="#2a5caa" />
  <rect x="56" y="218" width="80" height="12" rx="4" fill="#444" opacity="0.6" />
  <!-- Skills content -->
  <rect x="40" y="248" width="700" height="10" rx="4" fill="#d5dae2" />
  <rect x="40" y="266" width="680" height="10" rx="4" fill="#d5dae2" />
  <rect x="40" y="284" width="720" height="10" rx="4" fill="#d5dae2" />
  <rect x="40" y="302" width="500" height="10" rx="4" fill="#d5dae2" />

  <!-- Section: 教育经历 -->
  <rect x="40" y="330" width="720" height="28" rx="3" fill="#f0f2f5" />
  <rect x="40" y="330" width="4" height="28" fill="#2a5caa" />
  <rect x="56" y="338" width="80" height="12" rx="4" fill="#444" opacity="0.6" />
  <!-- Education entry -->
  <rect x="40" y="368" width="180" height="14" rx="4" fill="#333" opacity="0.55" />
  <rect x="230" y="370" width="100" height="10" rx="4" fill="#aab8d0" />
  <rect x="620" y="370" width="140" height="10" rx="4" fill="#aab8d0" />
  <rect x="40" y="390" width="200" height="10" rx="4" fill="#d5dae2" />

  <!-- Section: 工作经历 -->
  <rect x="40" y="420" width="720" height="28" rx="3" fill="#f0f2f5" />
  <rect x="40" y="420" width="4" height="28" fill="#2a5caa" />
  <rect x="56" y="428" width="80" height="12" rx="4" fill="#444" opacity="0.6" />
  <!-- Work entry 1 -->
  <rect x="40" y="458" width="160" height="14" rx="4" fill="#333" opacity="0.55" />
  <rect x="210" y="460" width="120" height="10" rx="4" fill="#aab8d0" />
  <rect x="620" y="460" width="140" height="10" rx="4" fill="#aab8d0" />
  <rect x="40" y="482" width="720" height="10" rx="4" fill="#d5dae2" />
  <rect x="40" y="500" width="700" height="10" rx="4" fill="#d5dae2" />
  <rect x="40" y="518" width="680" height="10" rx="4" fill="#d5dae2" />
  <!-- Work entry 2 -->
  <rect x="40" y="544" width="140" height="14" rx="4" fill="#333" opacity="0.55" />
  <rect x="190" y="546" width="100" height="10" rx="4" fill="#aab8d0" />
  <rect x="620" y="546" width="140" height="10" rx="4" fill="#aab8d0" />
  <rect x="40" y="568" width="720" height="10" rx="4" fill="#d5dae2" />
  <rect x="40" y="586" width="700" height="10" rx="4" fill="#d5dae2" />
  <rect x="40" y="604" width="660" height="10" rx="4" fill="#d5dae2" />

  <!-- Section: 项目经历 -->
  <rect x="40" y="634" width="720" height="28" rx="3" fill="#f0f2f5" />
  <rect x="40" y="634" width="4" height="28" fill="#2a5caa" />
  <rect x="56" y="642" width="80" height="12" rx="4" fill="#444" opacity="0.6" />
  <!-- Project entry 1 -->
  <rect x="40" y="672" width="200" height="14" rx="4" fill="#333" opacity="0.55" />
  <rect x="250" y="674" width="80" height="10" rx="4" fill="#aab8d0" />
  <rect x="620" y="674" width="140" height="10" rx="4" fill="#aab8d0" />
  <rect x="40" y="694" width="60" height="10" rx="4" fill="#555" opacity="0.5" />
  <rect x="40" y="712" width="720" height="10" rx="4" fill="#d5dae2" />
  <rect x="40" y="730" width="700" height="10" rx="4" fill="#d5dae2" />
  <rect x="40" y="754" width="60" height="10" rx="4" fill="#555" opacity="0.5" />
  <rect x="40" y="772" width="720" height="10" rx="4" fill="#d5dae2" />
  <rect x="40" y="790" width="680" height="10" rx="4" fill="#d5dae2" />
  <rect x="40" y="808" width="700" height="10" rx="4" fill="#d5dae2" />
  <!-- Project entry 2 -->
  <rect x="40" y="834" width="180" height="14" rx="4" fill="#333" opacity="0.55" />
  <rect x="230" y="836" width="80" height="10" rx="4" fill="#aab8d0" />
  <rect x="620" y="836" width="140" height="10" rx="4" fill="#aab8d0" />
  <rect x="40" y="856" width="60" height="10" rx="4" fill="#555" opacity="0.5" />
  <rect x="40" y="874" width="720" height="10" rx="4" fill="#d5dae2" />
  <rect x="40" y="892" width="700" height="10" rx="4" fill="#d5dae2" />
  <rect x="40" y="916" width="60" height="10" rx="4" fill="#555" opacity="0.5" />
  <rect x="40" y="934" width="720" height="10" rx="4" fill="#d5dae2" />
  <rect x="40" y="952" width="660" height="10" rx="4" fill="#d5dae2" />
  <rect x="40" y="970" width="690" height="10" rx="4" fill="#d5dae2" />

  <!-- Section: 个人简介 -->
  <rect x="40" y="1000" width="720" height="28" rx="3" fill="#f0f2f5" />
  <rect x="40" y="1000" width="4" height="28" fill="#2a5caa" />
  <rect x="56" y="1008" width="80" height="12" rx="4" fill="#444" opacity="0.6" />
  <rect x="40" y="1038" width="720" height="10" rx="4" fill="#d5dae2" />
  <rect x="40" y="1056" width="680" height="10" rx="4" fill="#d5dae2" />
  <rect x="40" y="1074" width="500" height="10" rx="4" fill="#d5dae2" />
</svg>
